<?xml version="1.0" standalone="no"?>
<!DOCTYPE svg PUBLIC "-//W3C//DTD SVG 20010904//EN"
 "http://www.w3.org/TR/2001/REC-SVG-20010904/DTD/svg10.dtd">
<svg version="1.0" xmlns="http://www.w3.org/2000/svg"
 width="512.000000pt" height="512.000000pt" viewBox="0 0 512.000000 512.000000"
 preserveAspectRatio="xMidYMid meet">
<metadata>
Created by potrace 1.14, written by Peter Selinger 2001-2017
</metadata>
<g transform="translate(0.000000,512.000000) scale(0.100000,-0.100000)"
fill="#000000" stroke="none">
<path d="M1975 4954 c-286 -90 -571 -180 -632 -199 -62 -20 -120 -38 -130 -40
-10 -2 -76 -23 -148 -45 -149 -48 -374 -118 -606 -190 -89 -27 -169 -56 -178
-62 -26 -21 -31 -32 -18 -40 24 -16 177 -61 364 -108 204 -51 246 -70 268
-124 10 -23 13 -119 13 -388 -1 -365 3 -409 39 -422 8 -3 69 12 136 34 163 52
297 86 382 97 105 12 341 9 420 -6 201 -39 442 -149 534 -244 103 -106 138
-109 241 -21 36 31 82 67 102 80 92 59 290 146 365 160 12 2 34 8 47 14 42 16
165 25 311 24 166 -2 285 -23 480 -88 166 -55 181 -59 204 -47 28 15 30 55 31
436 1 387 3 400 64 429 29 14 111 38 171 52 11 2 113 30 228 62 l207 58 -28
27 c-22 21 -99 49 -368 133 -186 58 -447 139 -579 181 -132 41 -296 92 -365
113 -69 21 -168 52 -220 68 -619 196 -687 215 -750 217 -59 2 -113 -13 -585
-161z m905 -179 c146 -46 288 -90 315 -98 28 -9 93 -29 145 -45 52 -17 217
-68 366 -115 149 -46 281 -90 294 -97 l24 -13 -24 -9 c-34 -13 -572 -154 -810
-213 -52 -13 -126 -36 -164 -50 -280 -105 -623 -103 -967 5 -169 54 -222 70
-354 106 -120 33 -494 127 -557 141 -16 3 -28 9 -28 14 0 14 39 49 54 49 8 0
101 27 208 61 106 33 198 62 203 63 6 1 39 12 75 23 36 12 139 44 230 73 91
28 242 76 336 106 223 71 308 92 353 87 20 -2 155 -42 301 -88z"/>
<path d="M1778 3245 c-1 -1 -34 -5 -73 -9 -221 -18 -420 -118 -555 -279 -63
-74 -139 -213 -160 -292 -23 -88 -56 -151 -91 -175 -32 -24 -36 -24 -308 -25
-152 -1 -284 -5 -294 -9 -9 -5 -20 -19 -23 -32 -7 -28 11 -60 220 -379 79
-121 213 -326 297 -455 85 -129 209 -320 278 -425 68 -104 234 -363 369 -575
135 -212 269 -422 299 -467 l54 -81 67 -7 c37 -4 76 -9 87 -11 93 -18 837 -26
1055 -11 189 12 307 24 322 33 10 6 93 134 335 514 239 374 294 460 418 650
45 69 142 217 215 330 73 113 202 309 285 435 227 346 265 409 265 437 0 51
-11 53 -309 54 -238 1 -280 3 -308 18 -38 19 -59 58 -97 174 -120 363 -409
576 -791 583 -223 3 -426 -73 -647 -243 -83 -64 -135 -81 -178 -58 -13 7 -66
44 -119 84 -167 124 -348 199 -510 212 -42 3 -81 7 -88 9 -6 2 -13 2 -15 0z
m157 -265 c110 -27 295 -130 398 -220 25 -23 58 -65 72 -94 l26 -54 3 -469 c3
-507 3 -511 57 -539 16 -8 48 -14 72 -14 55 0 93 28 107 78 5 22 10 226 11
490 2 445 3 454 24 501 28 60 85 117 183 181 169 112 304 158 449 155 164 -3
284 -55 403 -175 89 -88 148 -196 182 -330 31 -121 30 -362 -1 -507 -78 -369
-290 -685 -597 -889 -182 -121 -380 -195 -594 -222 -72 -9 -278 -8 -358 1
-297 36 -597 188 -814 413 -169 175 -310 432 -352 640 -3 11 -9 39 -15 64 -35
155 -31 393 10 540 48 169 172 324 325 406 111 59 276 77 409 44z m1687 -2007
c-10 -16 -53 -80 -94 -143 -41 -63 -113 -173 -159 -245 -47 -71 -114 -174
-149 -228 -38 -60 -75 -104 -92 -113 -45 -23 -1109 -22 -1144 1 -27 18 -74 84
-239 340 -66 102 -152 235 -191 295 -39 61 -70 110 -69 110 2 0 47 -28 101
-62 222 -140 498 -255 679 -284 22 -3 42 -7 46 -9 26 -16 313 -24 414 -12 281
36 585 156 855 339 30 20 56 37 58 37 2 1 -5 -11 -16 -26z"/>
<path d="M1817 2501 c-85 -30 -134 -88 -152 -180 -22 -110 21 -219 110 -275
88 -54 224 -35 303 43 53 54 67 88 67 171 0 102 -35 170 -115 221 -54 35 -147
44 -213 20z"/>
<path d="M3131 2500 c-193 -65 -225 -336 -53 -444 79 -49 179 -54 260 -12 99
51 148 212 99 328 -49 116 -180 171 -306 128z"/>
</g>
</svg>
